<svg version="1.1" id="Layer_1" xmlns="http://www.w3.org/2000/svg" x="0" y="0" viewBox="0 0 1189.4 804" style="enable-background:new 0 0 1189.4 804" xml:space="preserve"><style>.st0{fill:#d0dce5}.st1{fill:#4d4d4d}.st2{fill:#fff}.st3{fill:#50bfd8}.st4{fill:#b2e2ef}.st5{fill:#f69070}.st6{fill:#ffdb77}.st9{fill:#bbc0c4}.st10{fill:#333}.st12{fill:none}.st13{fill:#f3f3f3}.st14{fill:#a3a3a2}.st19,.st22,.st24,.st30{fill-rule:evenodd;clip-rule:evenodd;fill:#fff}.st22,.st24,.st30{fill:#e1e5eb}.st24,.st30{fill:#f69070}.st30{fill:#ffdb77}</style><path class="st0" d="M652.6 66.1H501c-13 0-23.7 10.7-23.7 23.7v1.9c0 13 10.6 23.7 23.7 23.7h151.6c13 0 23.7-10.6 23.7-23.7v-1.9c0-13-10.6-23.7-23.7-23.7zM743.3 162H507.9c-13.5 0-24.7 11.1-24.7 24.6 0 13.6 11.1 24.7 24.7 24.7h235.4c13.6 0 24.6-11.1 24.6-24.7 0-13.5-11-24.6-24.6-24.6zM836.8 162h-37.9c-13.1 0-23.8 10.7-23.8 23.8v1.7c0 13.1 10.7 23.8 23.8 23.8h37.9c13.1 0 23.8-10.7 23.8-23.8v-1.7c0-13.1-10.7-23.8-23.8-23.8z"/><path class="st0" d="M625 114.1H505.8c12 0 21.8 9.8 21.8 21.8v5.6c0 12-9.8 21.8-21.8 21.8H625c-12 0-21.8-9.8-21.8-21.8v-5.6c0-12 9.8-21.8 21.8-21.8z"/><path class="st1" d="M815 628.7h90v13.6h-90zM864.3 661.1h116.8v13.6H864.3z"/><path class="st2" d="m1092.4 222.4 49.2 16.3-60.3 64.2-227.6 89.5z"/><path class="st3" d="m1079.5 231.6-1.5-10.3-224.3 171.1z"/><path class="st2" d="m1078 221.3-53.6-13-78 50.6-92.7 133.5z"/><path class="st3" d="m1080.5 303 17.6-17.6 4.5 37.2-248.9 69.8z"/><path class="st4" d="M687.7 200v82.1c38.2 2.7 68.6 34.6 68.5 73.5 0 8.6-1.5 16.9-4.3 24.6l5.5 1.7 73.3 21.3c4.8-15 7.5-31 7.6-47.6 0-84.2-67-152.9-150.6-155.6z"/><path class="st2" d="M679.5 199.9c-41.7.8-79.2 18-106.7 45.4l58.8 57.2c12.5-12.1 29.3-19.8 47.9-20.6v-82z"/><path class="st5" d="M679.5 429.1c-39.2-1.6-70.6-34-70.6-73.6 0-17.8 6.4-34.2 17-46.9L567 251.2c-24.9 27.6-40.1 64.1-40.2 104.2-.1 85 68 154.1 152.6 155.8v-82.1z"/><path class="st6" d="M748.6 387.9c-11.3 22.9-34.2 39.2-60.9 41V511c64.2-2.1 118.5-43 140.3-100.1l-79.4-23z"/><path class="st2" d="M144.3 98.5h402v531.7h-402z"/><path class="st4" d="M144.3 556h402v4.8h-402z"/><path class="st6" d="M546.3 548h-402v-78.4l27.4 24.7 38.9-15 28.2 8.6 52.4-58 45.4 29.1 24-21.2 37.1 16.7 64.3-50.2 35.7 16.3 48.6-50.8z"/><path class="st4" d="M546.3 548h-402v-24.5l28.7-13.3 36.3-22.9 29.9 11.5 51.3-24.8 42.3 14.1 27.8-23.4 32.6 33.2 61-39 43.9-17.4 48.2 24.6z"/><path class="st5" d="M546.3 548h-402v-18.4l26.1 5.8 38.9-22.5 30.6-.5 48.1-17.6 46.7 23.8 22.3-39.3 36.2 29.1 61.7-15.8 42.8-21.2 48.6 12.9zM189 253.9h92.1v5.5H189zM189 241.4h306.6v5.5H189zM189 228.9h306.6v5.5H189zM189 216.5h306.6v5.4H189zM189 385.4h193.3v5.5H189zM189 373h306.6v5.4H189zM189 360.5h306.6v5.5H189zM189 317h112.2v5.4H189zM189 304.5h306.6v5.5H189zM189 292.1h306.6v5.4H189z"/><path class="st4" d="M294 158.9h96.6v13.2H294z"/><path class="st5" d="M196.2 589.6h74.5v8h-74.5z"/><path class="st6" d="M169.9 585.6h15.9v15.9h-15.9z"/><path class="st5" d="M321.2 589.6h74.4v8h-74.4z"/><path class="st4" d="M294.9 585.6h15.9v15.9h-15.9z"/><g><path class="st5" d="M445.2 589.3h74.5v8h-74.5z"/></g><g><path class="st5" d="M418.9 585.3h15.9v15.9h-15.9z"/></g><g><path class="st2" d="M286.7 703v12.5c0 6.9 5.5 12.5 12.2 12.5h479.2c6.8 0 12.2-5.6 12.2-12.5V703H286.7z"/></g><path d="M767.1 703V438.7c0-14.7-11.6-26.6-26-26.6h-405c-14.4 0-26 11.9-26 26.6V703" style="fill:#686969"/><g><path style="fill:#e6e6e5" d="M332.7 437.3h411.6v245.3H332.7z"/></g><g><path class="st2" d="M545.3 424.8c0 3.8-3 6.9-6.7 6.9s-6.7-3.1-6.7-6.9c0-3.8 3-6.9 6.7-6.9s6.7 3.1 6.7 6.9z"/></g><g><path class="st9" d="M332.7 437.3h411.6v20.6H332.7z"/></g><g><path class="st5" d="M352.4 447.6c0 3.1-2.5 5.6-5.5 5.6s-5.5-2.5-5.5-5.6c0-3.1 2.5-5.6 5.5-5.6 3-.1 5.5 2.5 5.5 5.6z"/></g><g><path class="st6" d="M371.5 447.6c0 3.1-2.5 5.6-5.5 5.6s-5.5-2.5-5.5-5.6c0-3.1 2.5-5.6 5.5-5.6 3-.1 5.5 2.5 5.5 5.6z"/></g><g><path class="st4" d="M390.5 447.6c0 3.1-2.5 5.6-5.5 5.6-3.1 0-5.5-2.5-5.5-5.6 0-3.1 2.5-5.6 5.5-5.6 3.1-.1 5.5 2.5 5.5 5.6z"/></g><g><path class="st0" d="M844.6 704.8h-104c-9.4 0-17.1-7.7-17.1-17.1 0-9.4 7.7-17.1 17.1-17.1h104c9.4 0 17.1 7.7 17.1 17.1 0 9.3-7.7 17.1-17.1 17.1zM913 771.3H732.5c-9.4 0-17.1-7.7-17.1-17.1 0-9.4 7.7-17.1 17.1-17.1H913c9.4 0 17.1 7.7 17.1 17.1 0 9.4-7.7 17.1-17.1 17.1z"/><path class="st0" d="M810 722.9V719c0-8.3 6.8-15.2 15.2-15.2h-82.8c8.3 0 15.2 6.8 15.2 15.2v3.9c0 8.3-6.8 15.2-15.2 15.2h82.8c-8.4 0-15.2-6.9-15.2-15.2z"/></g><g><path class="st10" d="m731.2 447.6 4-4.1c.6-.6.6-1.5 0-2.1-.6-.6-1.5-.6-2.1 0l-4 4.1-4-4.1c-.6-.6-1.5-.6-2.1 0-.6.6-.6 1.6 0 2.1l4 4.1-4 4.1c-.6.6-.6 1.5 0 2.1.6.6 1.5.6 2.1 0l4-4.1 4 4.1c.6.6 1.5.6 2.1 0 .6-.6.6-1.6 0-2.1l-4-4.1z"/></g><g><path d="M700.3 604.8c0 3.6-2.9 6.4-6.4 6.4h-204c-3.6 0-6.4-2.9-6.4-6.4V476.2c0-3.5 2.9-6.4 6.4-6.4h204c3.5 0 6.4 2.9 6.4 6.4v128.6z" style="fill:#d9dee6"/><path class="st10" d="M700.3 604.8c0 3.6-2.9 6.4-6.4 6.4h-204c-3.6 0-6.4-2.9-6.4-6.4V476.2c0-3.5 2.9-6.4 6.4-6.4h204c3.5 0 6.4 2.9 6.4 6.4v128.6z"/><path class="st12" d="M489.9 469.8c-3.6 0-6.4 2.9-6.4 6.4v10l16.5-16.5-10.1.1zM537.9 469.8l-54.4 54.4v14.2l68.6-68.6zM541.1 611.2l141.4-141.4h-14.2L526.9 611.2zM511.8 469.8l-28.3 28.3v14.3l42.5-42.6zM656.4 469.8h-14.2L500.8 611.2h14.3zM619.4 611.2l80.9-80.9V516l-95.2 95.2zM567.2 611.2l133.1-133.1v-1.9c0-3.4-2.7-6.1-6-6.4L553 611.2h14.2zM671.5 611.2l28.8-28.8v-14.2l-43 43zM616.1 469.8 483.5 602.5v2.3c0 3.3 2.4 5.9 5.6 6.3l141.3-141.3h-14.3zM693.9 611.2c3.5 0 6.4-2.9 6.4-6.4v-10.5l-16.9 16.9h10.5zM645.5 611.2l54.8-54.9v-14.2l-69.1 69.1zM590 469.8 483.5 576.4v14.2l120.8-120.8zM564 469.8l-80.5 80.5v14.2l94.7-94.7zM593.3 611.2l107-107V490L579.1 611.2z"/><path class="st5" d="m500 469.8-16.5 16.5v11.8l28.3-28.3z"/><path class="st4" d="m526 469.8-42.5 42.6v11.8l54.4-54.4z"/><path class="st5" d="m552.1 469.8-68.6 68.6v11.9l80.5-80.5z"/><path class="st4" d="m578.2 469.8-94.7 94.7v11.9L590 469.8z"/><path class="st5" d="M604.3 469.8 483.5 590.6v11.9l132.6-132.7z"/><path class="st4" d="M630.4 469.8 489.1 611.1c.3.1.5.1.8.1h10.9l141.4-141.4h-11.8z"/><path class="st5" d="m526.9 611.2 141.4-141.4h-11.9L515.1 611.2z"/><path class="st4" d="m553 611.2 141.3-141.3h-11.8L541.1 611.2H553z"/><path class="st5" d="M579.1 611.2 700.3 490v-11.9L567.2 611.2z"/><path class="st4" d="m605.1 611.2 95.2-95.2v-11.8l-107 107z"/><path class="st5" d="m631.2 611.2 69.1-69.1v-11.8l-80.9 80.9z"/><path class="st4" d="m657.3 611.2 43-43v-11.9l-54.8 54.9z"/><path class="st5" d="m683.4 611.2 16.9-16.9v-11.9l-28.8 28.8z"/><g><path class="st2" d="M492.8 478.2h198.3v124.7H492.8z"/></g><g><path class="st9" d="M505.9 490h51v22.4h-51z"/></g><g><path class="st13" d="M639.7 485.1h42.8V535h-42.8z"/></g></g><g><path class="st2" d="M372.4 536.2h214.7v129.7H372.4z"/><path class="st13" d="m480.4 598.2-108 67.7V536.2z"/><path class="st13" d="m479.2 598.2 107.9 67.7V536.2z"/><path class="st9" d="m480.2 617.9-107.8-81.7h214.7z"/><path class="st2" d="m480.2 597.1-107.8-60.9h214.7z"/></g><g><path class="st14" d="M670.2 529.8c-31.7 0-61.5-12.3-84-34.8-46.3-46.3-46.3-121.6 0-168 22.4-22.4 52.3-34.8 84-34.8 31.7 0 61.5 12.3 83.9 34.8 22.4 22.4 34.8 52.3 34.8 84 0 31.7-12.3 61.5-34.8 84-22.4 22.4-52.2 34.8-83.9 34.8zm0-206.5c-23.4 0-45.5 9.1-62 25.7-34.2 34.2-34.2 89.9 0 124.1 16.5 16.6 38.6 25.7 62 25.7s45.5-9.1 62-25.7c16.6-16.6 25.7-38.6 25.7-62s-9.1-45.4-25.7-62c-16.6-16.7-38.6-25.8-62-25.8z"/><g style="opacity:.4"><path d="M734.3 346.9c35.4 35.4 35.4 92.8 0 128.3-35.4 35.4-92.8 35.4-128.3 0-35.4-35.4-35.4-92.8 0-128.3 35.5-35.4 92.9-35.4 128.3 0z" style="fill:#cccbc9"/></g><path class="st10" d="M662.7 320.7c20.6 1.7 40.8 10.4 56.6 26.2 35.4 35.4 35.4 92.8 0 128.3-15.8 15.8-36 24.6-56.6 26.2 25.6 2.1 52-6.6 71.6-26.2 35.4-35.4 35.4-92.8 0-128.3-19.6-19.6-46-28.4-71.6-26.2z" style="opacity:.2"/><path class="st2" d="M603.2 400.2c-.9 0-1.8-.1-2.7-.4-4.9-1.5-7.7-6.7-6.2-11.6.7-2.3 1.5-4.6 2.4-6.8 6.2-15.4 16.9-28.3 31-37.2 4.3-2.8 10.1-1.5 12.9 2.9 2.7 4.3 1.4 10.1-2.9 12.8-10.7 6.8-18.9 16.6-23.7 28.4-.7 1.7-1.3 3.5-1.9 5.2a9.27 9.27 0 0 1-8.9 6.7zM612.2 459.5c-3 0-6-1.4-7.7-4.1-6.5-9.7-10.9-20.9-12.7-32.4-.8-5.1 2.7-9.8 7.8-10.6 5.1-.7 9.8 2.7 10.6 7.8 1.3 8.8 4.7 17.4 9.7 24.8 2.9 4.3 1.7 10.1-2.5 12.9-1.6 1-3.4 1.6-5.2 1.6z"/><path class="st14" d="m880.2 643-148-148 21.9-22 148 148.1z"/></g><g><path class="st10" d="M651.1 134.1h-82.2c-1.7 0-3.1-1.4-3.1-3.1 0-1.7 1.4-3.1 3.1-3.1h82.2c1.7 0 3.1 1.4 3.1 3.1 0 1.7-1.4 3.1-3.1 3.1zM679.7 111.7h-13.3c-1.7 0-3.1-1.4-3.1-3.1 0-1.7 1.4-3.1 3.1-3.1h13.3c1.7 0 3.1 1.4 3.1 3.1-.1 1.7-1.5 3.1-3.1 3.1zM695.5 163.3h-13.3c-1.7 0-3.1-1.4-3.1-3.1 0-1.7 1.4-3.1 3.1-3.1h13.3c1.7 0 3.1 1.4 3.1 3.1-.1 1.7-1.4 3.1-3.1 3.1zM651.1 111.7h-50c-1.7 0-3.1-1.4-3.1-3.1 0-1.7 1.4-3.1 3.1-3.1h50c1.7 0 3.1 1.4 3.1 3.1 0 1.7-1.4 3.1-3.1 3.1zM725.7 88.9h-60.4c-1.7 0-3.1-1.4-3.1-3.1 0-1.7 1.4-3.1 3.1-3.1h60.4c1.7 0 3.1 1.4 3.1 3.1 0 1.7-1.4 3.1-3.1 3.1z"/></g><g><path class="st10" d="M890.3 502.3h-82.2c-1.7 0-3.1-1.4-3.1-3.1 0-1.7 1.4-3.1 3.1-3.1h82.2c1.7 0 3.1 1.4 3.1 3.1 0 1.7-1.4 3.1-3.1 3.1zM918.9 479.9h-13.3c-1.7 0-3.1-1.4-3.1-3.1 0-1.7 1.4-3.1 3.1-3.1h13.3c1.7 0 3.1 1.4 3.1 3.1 0 1.7-1.4 3.1-3.1 3.1zM934.7 531.5h-13.3c-1.7 0-3.1-1.4-3.1-3.1 0-1.7 1.4-3.1 3.1-3.1h13.3c1.7 0 3.1 1.4 3.1 3.1 0 1.7-1.4 3.1-3.1 3.1zM890.3 479.9h-50.1c-1.7 0-3.1-1.4-3.1-3.1 0-1.7 1.4-3.1 3.1-3.1h50.1c1.7 0 3.1 1.4 3.1 3.1 0 1.7-1.4 3.1-3.1 3.1zM964.9 457.1h-7.8c-1.7 0-3.1-1.4-3.1-3.1 0-1.7 1.4-3.1 3.1-3.1h7.8c1.7 0 3.1 1.4 3.1 3.1 0 1.8-1.4 3.1-3.1 3.1zM942.2 457.1h-14.9c-1.7 0-3.1-1.4-3.1-3.1 0-1.7 1.4-3.1 3.1-3.1h14.9c1.7 0 3.1 1.4 3.1 3.1 0 1.8-1.4 3.1-3.1 3.1zM912.2 457.1h-7.8c-1.7 0-3.1-1.4-3.1-3.1 0-1.7 1.4-3.1 3.1-3.1h7.8c1.7 0 3.1 1.4 3.1 3.1 0 1.8-1.3 3.1-3.1 3.1z"/><g><path class="st10" d="M887.4 255.5h-7.7c-1.8 0-3.1-1.4-3.1-3.1 0-1.7 1.4-3.1 3.1-3.1h7.7c1.7 0 3.1 1.4 3.1 3.1 0 1.7-1.4 3.1-3.1 3.1zM870.1 255.5h-9.6c-1.7 0-3.1-1.4-3.1-3.1 0-1.7 1.4-3.1 3.1-3.1h9.6c1.7 0 3.1 1.4 3.1 3.1 0 1.7-1.4 3.1-3.1 3.1zM850.9 255.5h-7.8c-1.7 0-3.1-1.4-3.1-3.1 0-1.7 1.4-3.1 3.1-3.1h7.8c1.7 0 3.1 1.4 3.1 3.1 0 1.7-1.4 3.1-3.1 3.1z"/></g><g><path class="st10" d="M906.6 278.2h-38.5c-1.7 0-3.1-1.4-3.1-3.1 0-1.7 1.4-3.1 3.1-3.1h38.5c1.7 0 3.1 1.4 3.1 3.1 0 1.7-1.4 3.1-3.1 3.1z"/></g></g><g><path class="st10" d="M366 69.8h-7.7c-1.7 0-3.1-1.4-3.1-3.1 0-1.7 1.4-3.1 3.1-3.1h7.7c1.7 0 3.1 1.4 3.1 3.1 0 1.7-1.4 3.1-3.1 3.1zM385.1 69.8h-9.6c-1.7 0-3.1-1.4-3.1-3.1 0-1.7 1.4-3.1 3.1-3.1h9.6c1.7 0 3.1 1.4 3.1 3.1 0 1.7-1.4 3.1-3.1 3.1zM402.4 69.8h-7.8c-1.7 0-3.1-1.4-3.1-3.1 0-1.7 1.4-3.1 3.1-3.1h7.8c1.7 0 3.1 1.4 3.1 3.1 0 1.7-1.4 3.1-3.1 3.1z"/></g><g><path class="st10" d="M377.4 47H339c-1.7 0-3.1-1.4-3.1-3.1 0-1.7 1.4-3.1 3.1-3.1h38.5c1.7 0 3.1 1.4 3.1 3.1-.1 1.8-1.4 3.1-3.2 3.1z"/></g><g><path class="st10" d="M234.6 678.2h-38.5c-1.7 0-3.1-1.4-3.1-3.1 0-1.7 1.4-3.1 3.1-3.1h38.5c1.7 0 3.1 1.4 3.1 3.1.1 1.7-1.3 3.1-3.1 3.1zM246.6 659.8h-38.5c-1.7 0-3.1-1.4-3.1-3.1 0-1.7 1.4-3.1 3.1-3.1h38.5c1.7 0 3.1 1.4 3.1 3.1 0 1.7-1.4 3.1-3.1 3.1z"/></g><g><path class="st0" d="M150.8 581.4H87.4c-5.4 0-9.9 4.5-9.9 9.9v.8c0 5.4 4.4 9.9 9.9 9.9h63.4c5.5 0 9.9-4.4 9.9-9.9v-.8c0-5.4-4.4-9.9-9.9-9.9zM188.7 621.5H90.3c-5.7 0-10.3 4.6-10.3 10.3 0 5.7 4.6 10.3 10.3 10.3h98.4c5.7 0 10.3-4.6 10.3-10.3 0-5.7-4.6-10.3-10.3-10.3zM227.8 621.5h-15.9c-5.5 0-9.9 4.5-9.9 9.9v.7c0 5.5 4.5 10 9.9 10h15.9c5.5 0 9.9-4.5 9.9-10v-.7c.1-5.4-4.4-9.9-9.9-9.9z"/><path class="st0" d="M139.3 601.5H89.4c5 0 9.1 4.1 9.1 9.1v2.3c0 5-4.1 9.1-9.1 9.1h49.8c-5 0-9.1-4.1-9.1-9.1v-2.3c0-5 4.2-9.1 9.2-9.1z"/></g><g><g id="XMLID_1507_"><g id="XMLID_1508_"><path d="M797.6 521.4h60.7c11.8 0 21.4 9.6 21.4 21.4V704c0 11.8-9.6 21.4-21.4 21.4h-60.7c-11.8 0-21.4-9.6-21.4-21.4V542.8c0-11.8 9.6-21.4 21.4-21.4z" style="fill-rule:evenodd;clip-rule:evenodd;fill:#333237" id="XMLID_1511_"/><path class="st19" d="M785.6 538.5h84.7c.2 0 .3.1.3.3v167.5c0 .2-.1.3-.3.3h-84.7c-.2 0-.3-.1-.3-.3V538.8c0-.2.1-.3.3-.3z" id="XMLID_1510_"/><path class="st19" d="M828 720.9c2.9 0 5.2-2.4 5.2-5.2 0-2.9-2.3-5.2-5.2-5.2s-5.2 2.3-5.2 5.2c-.1 2.9 2.3 5.2 5.2 5.2z" id="XMLID_1509_"/></g></g><g id="XMLID_1502_" style="opacity:.5"><path d="M843.3 564.6c0 8.5-6.9 15.3-15.3 15.3-8.5 0-15.3-6.9-15.3-15.3 0-8.5 6.9-15.3 15.3-15.3s15.3 6.8 15.3 15.3z" style="fill-rule:evenodd;clip-rule:evenodd;fill:#333" id="XMLID_1506_"/><g id="XMLID_1503_"><path class="st22" d="M836.6 572.6c0-.1 0-.1 0 0 0-2.1-.8-4.1-2-5.6-1.9-.8-4.2-1.2-6.7-1.2s-4.8.5-6.7 1.2c-1.2 1.5-2 3.4-2 5.5v.1h17.4z" id="XMLID_1505_"/><path class="st22" d="M832.1 560.8c0 2.3-1.9 4.2-4.2 4.2-2.3 0-4.2-1.9-4.2-4.2 0-2.3 1.9-4.2 4.2-4.2 2.4 0 4.2 1.9 4.2 4.2z" id="XMLID_1504_"/></g></g><g id="XMLID_1497_"><path class="st22" d="M792.8 585.1h54.3v12.2h-54.3z" id="XMLID_1501_"/><path class="st19" d="M794.2 586.5h51.4v9.4h-51.4z" id="XMLID_1500_"/><path class="st22" d="M848 585.1h15.2v12.2H848z" id="XMLID_1499_"/><path style="fill-rule:evenodd;clip-rule:evenodd;fill:#255dab" d="M849.4 586.5h12.3v9.4h-12.3z" id="XMLID_1498_"/></g><g id="XMLID_1488_"><g id="XMLID_1491_"><path class="st2" d="M857.4 589.8c.2 1.6-1 3-2.6 3.2-1.6.2-3-1-3.2-2.6-.2-1.6 1-3 2.6-3.2 1.6-.1 3.1 1 3.2 2.6zm-4.6.5c.1 1 1 1.7 1.9 1.6 1-.1 1.7-1 1.6-1.9-.1-1-1-1.7-1.9-1.6-1 0-1.7.9-1.6 1.9z" id="XMLID_1492_"/></g><g id="XMLID_1489_"><path class="st2" d="M859.5 594.6c0 .2 0 .3-.2.5s-.6.2-.8 0l-2.6-2.6c-.2-.2-.2-.6 0-.8.2-.2.6-.2.8 0l2.6 2.6c.2 0 .2.1.2.3z" id="XMLID_1490_"/></g></g><g id="XMLID_1479_"><path class="st24" d="M811 629.2c6.2 0 11.3-5.1 11.3-11.2 0-6.2-5.1-11.3-11.3-11.3-6.2 0-11.2 5.1-11.2 11.3 0 6.1 5 11.2 11.2 11.2z" id="XMLID_1487_"/><g id="XMLID_1480_"><path style="fill-rule:evenodd;clip-rule:evenodd;fill:#cfcfce" d="m818 615-7 5.1-7-5.1 7-5z" id="XMLID_1486_"/><path style="fill-rule:evenodd;clip-rule:evenodd;fill:#eae9e8" d="M804 623.3h14V615l-7 5.1-7-5.1z" id="XMLID_1485_"/><path style="fill-rule:evenodd;clip-rule:evenodd;fill:#fffdfa" d="M804 623.3h14l-5.7-4.1h-2.6z" id="XMLID_1484_"/></g></g><g id="XMLID_1362_"><path d="M811 658.8c6.2 0 11.3-5 11.3-11.2 0-6.2-5.1-11.3-11.3-11.3-6.2 0-11.2 5.1-11.2 11.3 0 6.2 5 11.2 11.2 11.2z" style="fill-rule:evenodd;clip-rule:evenodd;fill:#b2e2ef" id="XMLID_1478_"/><g id="XMLID_1364_"><path d="M806.4 653.5c1.1 0 2-.9 2-2V644h6.5v3.7c-.2-.1-.5-.1-.8-.1-1.1 0-2 .9-2 2s.9 2 2 2 2-.9 2-2v-8.1h-8.9v8.1c-.2-.1-.5-.1-.8-.1-1.1 0-2 .9-2 2s.9 2 2 2z" style="fill:#fffdfa" id="XMLID_1366_"/></g></g><g id="XMLID_1349_"><path class="st24" d="M811 688.5c6.2 0 11.3-5.1 11.3-11.3 0-6.2-5.1-11.2-11.3-11.2-6.2 0-11.2 5-11.2 11.2 0 6.2 5 11.3 11.2 11.3z" id="XMLID_1360_"/><g id="XMLID_1351_"><path class="st2" d="M813.9 683.5c-.3.2-.7.2-.9 0l-.2-.2c-.2-.3-.8-.5-1.1-.5h-5.1c-.4 0-.8-.3-.9-.6l-2.2-6c-.3-.8.2-1.4 1-1.4h4.3c.2-.6.1-1.1-.1-1.4-.3-.4-1-1.1-.8-2.2 0-.4.3-.9.5-1.2.6-.8 1.6-.6 1.6.1 0 .9-.5 1.8 1.2 2.9 1.7 1.1 2.8 3.2 2.8 3.2l.5.5 2.8 2.8c.2.3.2.7 0 .9l-3.4 3.1z" id="XMLID_1357_"/><path class="st2" d="m817.8 680.5-3.8 3.7.9.9 3.7-3.8z" id="XMLID_1355_"/></g></g><g><g id="XMLID_1345_"><path class="st30" d="M844.9 688.5c6.2 0 11.3-5.1 11.3-11.3 0-6.2-5-11.2-11.3-11.2-6.2 0-11.2 5-11.2 11.2 0 6.2 5 11.3 11.2 11.3z" id="XMLID_1348_"/><path class="st2" d="M851.7 680.5c.2-.7.3-1.3.3-2 0-3.9-3.2-7.1-7.1-7.1-3.9 0-7.1 3.2-7.1 7.1 0 .7.1 1.4.3 2-.1.1-.1.2-.1.3v.4c0 .2.1.3.3.3h.8v.7c0 .8 1 1.5 2.1 1.5V678c-1 0-1.9.5-2.1 1.2v1.2h-.8c-.1 0-.1 0-.2.1v-.5c0-.2 0-.4.1-.6.1-.4.4-.8.8-1.1.1-3.2 2.7-5.7 5.9-5.8 3.2 0 5.8 2.6 5.9 5.8.4.4.7.8.8 1.3v.4l.1.5h-.9v-1.1c-.1-.7-1-1.3-2.1-1.3v5.6c1.2 0 2.1-.7 2.1-1.5v-.7h.8c.2 0 .3-.1.3-.3v-.4c0-.2-.1-.3-.2-.3z" id="XMLID_1346_"/></g><g id="XMLID_1092_"><path d="M844.9 606.7c-6.2 0-11.2 5.1-11.2 11.2 0 6.2 5.1 11.3 11.2 11.3 6.2 0 11.3-5.1 11.3-11.3 0-6.1-5.1-11.2-11.3-11.2z" style="fill-rule:evenodd;clip-rule:evenodd;fill:#2c7cb9" id="XMLID_1132_"/><g id="XMLID_1093_"><g id="XMLID_1104_"><path class="st2" d="M850.2 618.6v-6.1c0-.4-.4-.8-.8-.8s-.8.4-.8.8v6h1.6z" id="XMLID_1130_"/><path class="st2" d="M848.6 620.7v2.7c0 .4.4.8.8.8s.8-.4.8-.8v-2.6h-1.6z" id="XMLID_1121_"/><path class="st2" d="M850.4 620.3h-2.2c-.4 0-.7-.3-.7-.7 0-.4.3-.7.7-.7h2.2c.4 0 .7.3.7.7 0 .4-.3.7-.7.7z" id="XMLID_1105_"/></g><g id="XMLID_1098_"><path class="st2" d="M845.7 615.1s0-.1 0 0v-2.5c0-.4-.4-.8-.8-.8s-.8.4-.8.8v2.5h1.6z" id="XMLID_1101_"/><path class="st2" d="M844.1 617.1v6.2c0 .4.4.8.8.8s.8-.4.8-.8v-6.2h-1.6z" id="XMLID_1100_"/><path class="st2" d="M846 616.7h-2.2c-.4 0-.7-.3-.7-.7 0-.4.3-.7.7-.7h2.2c.4 0 .7.3.7.7 0 .4-.3.7-.7.7z" id="XMLID_1099_"/></g><g id="XMLID_1094_"><path class="st2" d="M841.2 617.1s.1 0 0 0v-4.5c0-.4-.4-.8-.8-.8-.5 0-.8.4-.8.8v4.5h1.6z" id="XMLID_1097_"/><path class="st2" d="M839.6 619.1s0 .1 0 0v4.2c0 .4.4.8.8.8s.8-.4.8-.8v-4.2h-1.6z" id="XMLID_1096_"/><path class="st2" d="M841.5 618.8h-2.2c-.4 0-.7-.3-.7-.7 0-.4.3-.7.7-.7h2.2c.4 0 .7.3.7.7 0 .4-.3.7-.7.7z" id="XMLID_1095_"/></g></g></g><path class="st30" d="M844.9 658.8c6.2 0 11.3-5 11.3-11.2 0-6.2-5-11.3-11.3-11.3-6.2 0-11.2 5.1-11.2 11.3 0 6.2 5 11.2 11.2 11.2z" id="XMLID_1091_"/><g id="XMLID_1086_"><path class="st19" d="M844.9 638.6c-5 0-9 4-9 9s4 9 9 9 9-4 9-9-4-9-9-9zm0 16.7c-4.2 0-7.7-3.4-7.7-7.7 0-4.2 3.4-7.7 7.7-7.7s7.7 3.4 7.7 7.7c0 4.2-3.5 7.7-7.7 7.7z" id="XMLID_1088_"/><path class="st19" d="M844.9 643c-2.5 0-4.6 2.1-4.6 4.6 0 2.5 2.1 4.6 4.6 4.6 2.5 0 4.6-2.1 4.6-4.6 0-2.5-2.1-4.6-4.6-4.6z" id="XMLID_1087_"/></g></g><g><path d="M831.5 534.7h-7c-1.5 0-2.7-1.2-2.7-2.7 0-1.5 1.2-2.7 2.7-2.7h7c1.5 0 2.7 1.2 2.7 2.7 0 1.4-1.2 2.7-2.7 2.7z" style="fill-rule:evenodd;clip-rule:evenodd;fill:#cccbc9"/></g></g></svg>