<svg id="Layer_1" data-name="Layer 1" xmlns="http://www.w3.org/2000/svg" viewBox="0 0 1221.52 960.25"><defs><style>.cls-1{fill-opacity:0.5;}.cls-2{fill:#fff;}.cls-3{fill:#e6e6e6;}.cls-4{fill:#b3b3b3;}.cls-5{fill:#929fa8;}.cls-6{fill:#51656b;}.cls-7{fill:#2c3c42;}.cls-8{fill:#355971;}.cls-9{fill:#a5b3bc;}.cls-10{fill:#cae6f9;}.cls-11{fill:#c9d6de;}.cls-12{fill:#a6b7c2;}.cls-13{fill:#222b32;}</style></defs><title>seo-about</title><g id="layer2"><path d="M120.09,115.58l-.29,4.24a31.19,31.19,0,0,1-11.86,20.49Q98,148,84.61,146.53a31.32,31.32,0,0,1-24.54-18.79l-1.34-3.86a31.55,31.55,0,0,1-1.11-8.3Q58,102.31,66.77,93.5t22.08-9.15q13.28.33,22.09,9.15t9.15,22.08"/><path class="cls-1" d="M1221.52,946.52l-5.57,1.86q-39.65,5.64-232,9-193.66,3.39-456.1,2.75-250.45-.9-400.62-5.23-48.12-1.39-79.26-3l-26.18-1.7Q.23,948.43,0,946.52q6.56-5.85,178.89-9.73t431.87-4q259.53.15,431.87,4t178.89,9.73"/><path d="M782.86,761.26h147V946.94h-147Z"/><path d="M514.84,358.82H1200V804.39H514.84Z"/><path class="cls-2" d="M532.22,378.93h650.43V781.86H532.22Z"/><path d="M677.24,926.6h358.24v28.51H677.24Z"/><path class="cls-3" d="M582.51,621.38H712.84V640H582.51Zm0,0H712.84V640H582.51Zm0,0H712.84V640H582.51Zm0,0H712.84V640H582.51Z"/><path class="cls-3" d="M582.51,658.5h99.37v18.64H582.51Zm0,0h99.37v18.64H582.51Zm0,0h99.37v18.64H582.51Zm0,0h99.37v18.64H582.51Z"/><path class="cls-3" d="M582.51,689.62H712.84v18.64H582.51Zm0,0H712.84v18.64H582.51Zm0,0H712.84v18.64H582.51Zm0,0H712.84v18.64H582.51Z"/><path class="cls-3" d="M582.51,726.9H712.84v12.48H582.51Zm0,0H712.84v12.48H582.51Zm0,0H712.84v12.48H582.51Zm0,0H712.84v12.48H582.51Z"/><path class="cls-3" d="M731.32,658.5h99.37v18.64H731.32Zm0,0h99.37v18.64H731.32Zm0,0h99.37v18.64H731.32Zm0,0h99.37v18.64H731.32Z"/><path class="cls-3" d="M731.32,689.62H861.65v18.64H731.32Zm0,0H861.65v18.64H731.32Zm0,0H861.65v18.64H731.32Zm0,0H861.65v18.64H731.32Z"/><path class="cls-3" d="M731.32,726.9H861.65v12.48H731.32Zm0,0H861.65v12.48H731.32Zm0,0H861.65v12.48H731.32Zm0,0H861.65v12.48H731.32Z"/><path class="cls-2" d="M1097.72,478.84c-5.15,0-10.83-4.21-10.83-9.35V380.6l95,98.24Z"/><path class="cls-3" d="M932.48,577.09h205.85v9.35H932.48Zm0,0h205.85v9.35H932.48Zm0,0h205.85v9.35H932.48Zm0,0h205.85v9.35H932.48Z"/><path class="cls-4" d="M932.48,595.8H1100.9v4.68H932.48Zm0,0H1100.9v4.68H932.48Zm0,0H1100.9v4.68H932.48Zm0,0H1100.9v4.68H932.48Z"/><path class="cls-4" d="M983.94,698.72h149.71v4.68H983.94Zm0,0h149.71v4.68H983.94Zm0,0h149.71v4.68H983.94Zm0,0h149.71v4.68H983.94Z"/><path class="cls-4" d="M983.94,712.76h149.71v4.68H983.94Zm0,0h149.71v4.68H983.94Zm0,0h149.71v4.68H983.94Zm0,0h149.71v4.68H983.94Z"/><path class="cls-4" d="M983.94,740.83h149.71v4.67H983.94Zm0,0h149.71v4.67H983.94Zm0,0h149.71v4.67H983.94Zm0,0h149.71v4.67H983.94Z"/><path class="cls-4" d="M983.94,754.86h149.71v4.68H983.94Zm0,0h149.71v4.68H983.94Zm0,0h149.71v4.68H983.94Zm0,0h149.71v4.68H983.94Z"/><path class="cls-4" d="M932.48,609.83H1129v4.67H932.48Zm0,0H1129v4.67H932.48Zm0,0H1129v4.67H932.48Zm0,0H1129v4.67H932.48Z"/><path class="cls-4" d="M932.48,623.87h112.28v4.68H932.48Zm0,0h112.28v4.68H932.48Zm0,0h112.28v4.68H932.48Zm0,0h112.28v4.68H932.48Z"/><path class="cls-5" d="M906.25,405.2H1146.5V533.52H906.25V405.2"/><path class="cls-6" d="M401.52,306.89a6.75,6.75,0,0,1-7.14-7.14V278.34a7.14,7.14,0,0,1,14.28,0v21.41A6.75,6.75,0,0,1,401.52,306.89Z"/><path class="cls-6" d="M401.52,349.71A28.64,28.64,0,0,1,373,321.16a7.14,7.14,0,0,1,14.28,0,14.28,14.28,0,1,0,14.27-14.27,7.14,7.14,0,0,1,0-14.28,28.55,28.55,0,1,1,0,57.1Z"/><path class="cls-7" d="M415.8,278.34H387.25v-8.56a48.06,48.06,0,0,1,14.27-34.26,48.07,48.07,0,0,1,14.28,34.26v8.56Z"/><path class="cls-6" d="M401.52,242.66a6.75,6.75,0,0,1-7.14-7.14V149.88a7.14,7.14,0,0,1,14.28,0v85.64A6.75,6.75,0,0,1,401.52,242.66Z"/><path class="cls-8" d="M130.32,142.74h14.27V85.64H130.32ZM151.73,157H123.18a6.74,6.74,0,0,1-7.14-7.13V78.51a6.74,6.74,0,0,1,7.14-7.14h28.55a6.74,6.74,0,0,1,7.13,7.14v71.37a6.73,6.73,0,0,1-7.13,7.13Z"/><path class="cls-8" d="M158.87,413.94H216v-334L194.55,14.27H181L158.87,79.93v334Zm64.23,14.28H151.73a6.75,6.75,0,0,1-7.14-7.14V78.51a2.6,2.6,0,0,1,.72-2.14L168.86,5a6.85,6.85,0,0,1,6.42-5h23.55a6.86,6.86,0,0,1,6.43,5l23.55,71.36c0,.72.71,1.43.71,2.15V421.08c.71,4.28-2.14,7.14-6.42,7.14Z"/><path class="cls-8" d="M151.73,428.22a6.52,6.52,0,0,1-5-2.14c-2.85-2.86-2.14-7.14.72-10l64.94-58.52-64.94-52.1a7.13,7.13,0,0,1,0-11.42l64.23-51.38-64.23-51.39a7.13,7.13,0,0,1,0-11.42l71.37-57.1c2.85-2.14,7.85-2.14,10,1.43,2.14,2.86,2.14,7.85-1.43,10l-64.23,51.39L226.67,237c1.42,1.42,2.85,3.56,2.85,5.71a6.49,6.49,0,0,1-2.85,5.71l-63.52,51.38,63.52,51.39c1.42,1.43,2.85,3.57,2.85,5.71a8.1,8.1,0,0,1-2.14,5.71l-70.66,64.23A13.23,13.23,0,0,1,151.73,428.22Z"/><path class="cls-8" d="M223.1,428.22a7.76,7.76,0,0,1-5-2.14l-71.37-64.24a7,7,0,0,1,.72-10.7l64.23-51.39-64.23-51.38a7.13,7.13,0,0,1,0-11.42l64.23-51.39-64.23-51.39A7.14,7.14,0,0,1,156,122.75l70.66,57.1c1.42,1.43,2.85,3.57,2.85,5.71a6.49,6.49,0,0,1-2.85,5.71l-63.52,51.39L226.67,294c1.42,1.43,2.85,3.57,2.85,5.71a6.49,6.49,0,0,1-2.85,5.71l-63.52,51.39,64.94,58.52a7.64,7.64,0,0,1,.72,10A6.5,6.5,0,0,1,223.1,428.22Z"/><path class="cls-8" d="M151.73,135.6a6.49,6.49,0,0,1-5.71-2.85c-2.14-3.57-1.43-7.85,1.43-10l71.37-50c3.56-2.14,7.85-1.43,10,1.42,2.14,3.57,1.43,7.86-1.43,10L156,134.17A10.05,10.05,0,0,1,151.73,135.6Z"/><path class="cls-8" d="M223.1,135.6a10,10,0,0,1-4.28-1.43L147.45,84.22c-3.57-2.15-4.29-6.43-1.43-10,2.14-3.57,6.42-4.28,10-1.42l71.37,50c3.57,2.15,4.28,6.43,1.43,10A6.49,6.49,0,0,1,223.1,135.6Z"/><path class="cls-8" d="M230.23,142.74h224.1l-28.54-57.1H230.23ZM465.75,157H223.1a6.74,6.74,0,0,1-7.14-7.13V78.51a6.74,6.74,0,0,1,7.14-7.14h207c2.85,0,5,1.43,6.42,4.28L472.18,147c1.43,2.14.71,5,0,7.14a10.64,10.64,0,0,1-6.43,2.85Z"/><path class="cls-7" d="M94.63,164.15h35.69V64.23H94.63Z"/><path class="cls-8" d="M401.52,157a6.49,6.49,0,0,1-5.71-2.85L344.43,89.93,293,154.16a7.43,7.43,0,0,1-11.42,0l-57.1-71.37c-2.14-2.86-2.14-7.85,1.43-10,2.86-2.14,7.85-2.14,10,1.42l51.39,64.24,51.39-64.24a7.44,7.44,0,0,1,11.42,0l57.09,71.37c2.14,2.86,2.14,7.85-1.43,10A7.65,7.65,0,0,1,401.52,157Z"/><path class="cls-8" d="M230.23,157a10.1,10.1,0,0,1-4.28-1.43,7.68,7.68,0,0,1-1.43-10l57.1-71.37a7.43,7.43,0,0,1,11.42,0l51.39,64.24,51.38-64.24a7.14,7.14,0,0,1,11.42,8.57l-57.09,71.37a7.43,7.43,0,0,1-11.42,0L287.33,89.92l-51.39,64.24A6.47,6.47,0,0,1,230.23,157Z"/><path class="cls-8" d="M401.52,157a7.58,7.58,0,0,1-4.28-1.43c-2.86-2.85-3.57-7.13-.71-10l40-47.81c2.86-2.86,7.14-3.57,10-.72s3.57,7.14.72,10l-40,47.82A8.1,8.1,0,0,1,401.52,157Z"/><path class="cls-8" d="M158.87,432.45H216v334l-21.41,65.66H181l-22.12-65.66v-334Zm64.23-14.27H151.73a6.74,6.74,0,0,0-7.14,7.14V767.89a2.61,2.61,0,0,0,.72,2.14l23.55,71.37a6.85,6.85,0,0,0,6.42,5h23.55a6.85,6.85,0,0,0,6.43-5L228.81,770c0-.71.71-1.43.71-2.14V425.32c.71-4.29-2.14-7.14-6.42-7.14Z"/><path class="cls-8" d="M151.73,418.18a6.48,6.48,0,0,0-5,2.14c-2.85,2.86-2.14,7.14.72,10l64.94,58.53-64.94,52.09a7.13,7.13,0,0,0,0,11.42l64.23,51.39-64.23,51.39a7.13,7.13,0,0,0,0,11.42l71.37,57.09c2.85,2.14,7.85,2.14,10-1.43,2.14-2.85,2.14-7.85-1.43-10l-64.23-51.38,63.52-51.39c1.42-1.43,2.85-3.57,2.85-5.71a6.49,6.49,0,0,0-2.85-5.71l-63.52-51.39,63.52-51.38c1.42-1.43,2.85-3.57,2.85-5.71a8.1,8.1,0,0,0-2.14-5.71l-70.66-64.23A13,13,0,0,0,151.73,418.18Z"/><path class="cls-8" d="M223.1,418.18a7.7,7.7,0,0,0-5,2.14l-71.37,64.23a7,7,0,0,0,.72,10.71l64.23,51.38L147.45,598a7.13,7.13,0,0,0,0,11.42l64.23,51.39-64.23,51.38A7.14,7.14,0,0,0,156,723.64l70.66-57.09c1.42-1.43,2.85-3.57,2.85-5.71a6.47,6.47,0,0,0-2.85-5.71l-63.52-51.39,63.52-51.39c1.42-1.42,2.85-3.56,2.85-5.71a6.49,6.49,0,0,0-2.85-5.71l-63.52-51.38L228.09,431a7.65,7.65,0,0,0,.72-10A6.49,6.49,0,0,0,223.1,418.18Z"/><path class="cls-8" d="M118.85,694.94h163.3V948.5H118.85V694.94"/><path class="cls-9" d="M140.74,715.14H263.58V939.79H140.74V715.14"/><path class="cls-10" d="M152.31,729.14h98.81v81.21H152.31V729.14"/><path class="cls-11" d="M261.21,398.85H552.33V605.93H261.21Zm0,0H552.33V605.93H261.21Zm0,0H552.33V605.93H261.21Zm0,0H552.33V605.93H261.21Z"/><path class="cls-12" d="M258.9,404.35V367.53a9.27,9.27,0,0,1,9.25-9.24H545.38a9.27,9.27,0,0,1,9.25,9.24v36.82Z"/><path class="cls-13" d="M297.9,381a7.87,7.87,0,1,1-7.86-7.86A7.87,7.87,0,0,1,297.9,381Z"/><path class="cls-13" d="M318.71,381a7.86,7.86,0,1,1-7.86-7.86A7.87,7.87,0,0,1,318.71,381Z"/><path class="cls-13" d="M339.58,381a7.87,7.87,0,1,1-7.87-7.86A7.87,7.87,0,0,1,339.58,381Z"/><path class="cls-6" d="M398.65,327h6.57V372.8h-6.57V327"/><path class="cls-7" d="M318.24,955.11h-207a7.14,7.14,0,0,1,0-14.28h207a7.14,7.14,0,1,1,0,14.27Z"/></g></svg>